<?xml version="1.0" standalone="no"?>
<!DOCTYPE svg PUBLIC "-//W3C//DTD SVG 1.1//EN"
  "http://www.w3.org/Graphics/SVG/1.1/DTD/svg11.dtd">
<svg width="158.22269439697266mm" height="180.46902465820312mm" viewBox="-62.79998016357422 -90.40373229980469 158.22269439697266 180.46902465820312" xmlns="http://www.w3.org/2000/svg" version="1.1">
	<title>svgOutput</title>
	<desc>made with tinkercad</desc>
<path d="M -54.1136589050293 -14.719178199768066 L -54.10067367553711 -14.751999855041504 L -54.100650787353516 -14.752174377441406 L -54.09626388549805 -14.786978721618652 L -54.00571823120117 -15.498000144958496 L -54.00619888305664 -15.501762390136719 L -54.09626388549805 -16.209020614624023 L -54.10067367553711 -16.243999481201172 L -54.10074234008789 -16.24417495727539 L -54.1136589050293 -16.276775360107422 L -54.15599822998047 -16.384000778198242 L -54.3767204284668 -16.94300079345703 L -54.378814697265625 -16.94588279724121 L -54.81871795654297 -17.551000595092773 L -55.398719787597656 -18.0310001373291 L -56.07872009277344 -18.35099983215332 L -56.50325012207031 -18.43199920654297 L -56.817718505859375 -18.492000579833984 L -57.34400177001953 -18.459020614624023 L -57.56772232055664 -18.44499969482422 L -58.283721923828125 -18.211999893188477 L -58.889225006103516 -17.82771873474121 L -58.91867446899414 -17.80900001525879 L -58.94259262084961 -17.78354835510254 L -59.43272018432617 -17.26099967956543 L -59.79572296142578 -16.601999282836914 L -59.85171890258789 -16.384000778198242 L -59.982723236083984 -15.87399959564209 L -59.982723236083984 -15.121999740600586 L -59.79572296142578 -14.392999649047852 L -59.76432418823242 -14.336000442504883 L -59.43272018432617 -13.734000205993652 L -59.391998291015625 -13.690585136413574 L -58.94259262084961 -13.211451530456543 L -58.91867446899414 -13.185999870300293 L -58.889225006103516 -13.167281150817871 L -58.283721923828125 -12.782999992370605 L -57.56772232055664 -12.550999641418457 L -57.34400177001953 -12.53668212890625 L -56.817718505859375 -12.503000259399414 L -56.07872009277344 -12.644000053405762 L -55.398719787597656 -12.96399974822998 L -54.81871795654297 -13.444000244140625 L -54.3767204284668 -14.052000045776367 L -54.264739990234375 -14.336000442504883 L -54.1136589050293 -14.719178199768066 M 59.878421783447266 -10.889549255371094 L 59.391998291015625 -10.732307434082031 L 59.37099838256836 -10.725519180297852 L 59.02600860595703 -10.65219783782959 L 58.494998931884766 -10.596263885498047 L 57.34400177001953 -10.597289085388184 L 53.24800109863281 -10.600934982299805 L 49.152000427246094 -10.604580879211426 L 45.055999755859375 -10.608226776123047 L 40.959999084472656 -10.611873626708984 L 36.86399841308594 -10.615519523620605 L 32.768001556396484 -10.619165420532227 L 28.672000885009766 -10.622811317443848 L 24.576000213623047 -10.626458168029785 L 20.479999542236328 -10.630104064941406 L 16.384000778198242 -10.633749961853027 L 12.288000106811523 -10.637395858764648 L 8.192000389099121 -10.641042709350586 L 4.0960001945495605 -10.644688606262207 L 0 -10.648334503173828 L -4.0960001945495605 -10.65198040008545 L -8.192000389099121 -10.655627250671387 L -12.288000106811523 -10.659273147583008 L -16.384000778198242 -10.662919044494629 L -20.479999542236328 -10.666565895080566 L -24.576000213623047 -10.670211791992188 L -28.672000885009766 -10.673857688903809 L -32.768001556396484 -10.67750358581543 L -36.86399841308594 -10.681150436401367 L -40.959999084472656 -10.684796333312988 L -45.055999755859375 -10.68844223022461 L -49.152000427246094 -10.69208812713623 L -53.24800109863281 -10.695734977722168 L -57.34400177001953 -10.699380874633789 L -58.50572967529297 -10.700414657592773 L -58.50600051879883 -10.700414657592773 L -58.852020263671875 -10.737479209899902 L -59.18242263793945 -10.844930648803711 L -59.391998291015625 -10.889688491821289 L -59.8454704284668 -10.986532211303711 L -59.84624481201172 -10.986698150634766 L -60.14552688598633 -11.15982723236084 L -60.20028305053711 -11.191452026367188 L -60.44273376464844 -11.331476211547852 L -60.6994743347168 -11.562824249267578 L -60.779911041259766 -11.646382331848145 L -61.05529022216797 -11.932449340820312 L -61.15620422363281 -12.071529388427734 L -61.25723648071289 -12.210770606994629 L -61.29159927368164 -12.288000106811523 L -61.397335052490234 -12.525638580322266 L -61.439998626708984 -12.605990409851074 L -61.638404846191406 -12.979636192321777 L -61.63861083984375 -12.980025291442871 L -61.719200134277344 -13.488874435424805 L -61.79998016357422 -13.998000144958496 L -61.79998016357422 -14.336000442504883 L -61.79998016357422 -16.384000778198242 L -61.79998016357422 -20.479999542236328 L -61.79998016357422 -24.576000213623047 L -61.79998016357422 -28.672000885009766 L -61.79998016357422 -32.768001556396484 L -61.79998016357422 -36.86399841308594 L -61.79998016357422 -40.959999084472656 L -61.79998016357422 -49.152000427246094 L -61.79998016357422 -57.34400177001953 L -61.79998016357422 -61.439998626708984 L -61.79998016357422 -65.53600311279297 L -61.79998016357422 -69.63200378417969 L -61.79998016357422 -73.72799682617188 L -61.79998016357422 -77.8239974975586 L -61.79998016357422 -81.91999816894531 L -61.79998016357422 -86.00114440917969 L -61.79998016357422 -86.00199890136719 L -61.79776382446289 -86.01599884033203 L -61.719200134277344 -86.51165771484375 L -61.681541442871094 -86.74966430664062 L -61.63861083984375 -87.0209732055664 L -61.439998626708984 -87.36515045166016 L -61.29636001586914 -87.61406707763672 L -61.1562614440918 -87.928466796875 L -61.05792236328125 -88.06400299072266 L -60.954315185546875 -88.206787109375 L -60.40226745605469 -88.60882568359375 L -60.14552688598633 -88.84017181396484 L -60.13888931274414 -88.84400939941406 L -59.84624481201172 -89.0133056640625 L -59.391998291015625 -89.11031341552734 L -59.18242263793945 -89.15506744384766 L -58.852020263671875 -89.26251983642578 L -58.50600051879883 -89.2995834350586 L -57.34400177001953 -89.30062103271484 L -55.29600143432617 -89.30244445800781 L -53.24800109863281 -89.30426788330078 L -51.20000076293945 -89.30609130859375 L -49.152000427246094 -89.30791473388672 L -45.055999755859375 -89.31155395507812 L -40.959999084472656 -89.31520080566406 L -36.86399841308594 -89.31884765625 L -32.768001556396484 -89.32249450683594 L -28.672000885009766 -89.32614135742188 L -24.576000213623047 -89.32978820800781 L -20.479999542236328 -89.33343505859375 L -16.384000778198242 -89.33708190917969 L -12.288000106811523 -89.34072875976562 L -8.192000389099121 -89.34437561035156 L -4.0960001945495605 -89.3480224609375 L 0 -89.3516616821289 L 4.0960001945495605 -89.35530853271484 L 8.192000389099121 -89.35895538330078 L 12.288000106811523 -89.36260223388672 L 16.384000778198242 -89.36624908447266 L 20.479999542236328 -89.3698959350586 L 24.576000213623047 -89.37354278564453 L 28.672000885009766 -89.37718963623047 L 32.768001556396484 -89.3808364868164 L 36.86399841308594 -89.38448333740234 L 40.959999084472656 -89.38813018798828 L 45.055999755859375 -89.39176940917969 L 47.104000091552734 -89.39359283447266 L 49.152000427246094 -89.39541625976562 L 51.20000076293945 -89.3972396850586 L 53.24800109863281 -89.39906311035156 L 55.29600143432617 -89.40088653564453 L 57.34400177001953 -89.4027099609375 L 58.494998931884766 -89.40373229980469 L 59.02600860595703 -89.3478012084961 L 59.37099838256836 -89.27448272705078 L 59.391998291015625 -89.26769256591797 L 59.878421783447266 -89.1104507446289 L 59.88102722167969 -89.10894775390625 L 60.34260940551758 -88.843017578125 L 60.74359893798828 -88.48338317871094 L 61.0244140625 -88.27972412109375 L 61.181304931640625 -88.06400299072266 L 61.340576171875 -87.84500122070312 L 61.439998626708984 -87.70825958251953 L 61.4427375793457 -87.70449829101562 L 61.660831451416016 -87.21341705322266 L 61.74986267089844 -86.97005462646484 L 61.875885009765625 -86.1736068725586 L 61.896507263183594 -86.01599884033203 L 61.898338317871094 -86.00199890136719 L 61.898338317871094 -81.91999816894531 L 61.898338317871094 -77.8239974975586 L 61.898338317871094 -73.72799682617188 L 61.898338317871094 -69.63200378417969 L 61.898338317871094 -65.53600311279297 L 61.898338317871094 -61.439998626708984 L 61.898338317871094 -57.34400177001953 L 61.898338317871094 -53.24800109863281 L 61.898338317871094 -49.152000427246094 L 61.898338317871094 -45.055999755859375 L 61.898338317871094 -40.959999084472656 L 61.898338317871094 -36.86399841308594 L 61.898338317871094 -32.768001556396484 L 61.898338317871094 -28.672000885009766 L 61.898338317871094 -24.576000213623047 L 61.898338317871094 -20.479999542236328 L 61.898338317871094 -16.384000778198242 L 61.898338317871094 -14.336000442504883 L 61.898338317871094 -13.998459815979004 L 61.898338317871094 -13.998000144958496 L 61.85771179199219 -13.741930961608887 L 61.743045806884766 -13.017949104309082 L 61.731685638427734 -12.946213722229004 L 61.609619140625 -12.717062950134277 L 61.439998626708984 -12.33456802368164 L 61.419349670410156 -12.288000106811523 L 61.39152526855469 -12.225252151489258 L 61.07535934448242 -11.790526390075684 L 60.895172119140625 -11.603901863098145 L 60.51662063598633 -11.263999938964844 L 60.495609283447266 -11.245134353637695 L 60.49501419067383 -11.244597434997559 L 60.34260940551758 -11.156984329223633 L 59.878421783447266 -10.889549255371094 M -61.4107780456543 86.93614196777344 L -61.439998626708984 86.77218627929688 L -61.541648864746094 86.20186614990234 L -61.56341552734375 86.01599884033203 L -61.56528854370117 86 L -61.56528854370117 84.5 L -61.56528854370117 81.91999816894531 L -61.56528854370117 73.72799682617188 L -61.56528854370117 65.53600311279297 L -61.56528854370117 32.768001556396484 L -61.56528854370117 24.576000213623047 L -61.56528854370117 16.384000778198242 L -61.56528854370117 16 L -61.56528854370117 14 L -61.556251525878906 13.932466506958008 L -61.494544982910156 13.383782386779785 L -61.4609260559082 13.177557945251465 L -61.452308654785156 13.1559476852417 L -61.439998626708984 13.125085830688477 L -61.383522033691406 12.983480453491211 L -61.214908599853516 12.560872077941895 L -61.09767150878906 12.387982368469238 L -61.03000259399414 12.288000106811523 L -60.84224319458008 12.010577201843262 L -60.84086990356445 12.00927734375 L -60.6905403137207 11.866785049438477 L -59.969451904296875 11.318614959716797 L -59.790348052978516 11.210982322692871 L -59.592315673828125 11.14402961730957 L -59.391998291015625 11.101908683776855 L -58.768306732177734 10.970763206481934 L -58.5 10.934710502624512 L -57.34400177001953 10.934710502624512 L -53.24800109863281 10.934710502624512 L -49.152000427246094 10.934710502624512 L -32.768001556396484 10.934710502624512 L -16.384000778198242 10.934710502624512 L 0 10.934710502624512 L 16.384000778198242 10.934710502624512 L 32.768001556396484 10.934710502624512 L 49.152000427246094 10.934710502624512 L 53.24800109863281 10.934710502624512 L 57.34400177001953 10.934710502624512 L 58.5 10.934710502624512 L 58.768306732177734 10.970763206481934 L 59.391998291015625 11.101908683776855 L 59.592315673828125 11.14402961730957 L 59.790348052978516 11.210982322692871 L 60.180667877197266 11.445605278015137 L 60.359771728515625 11.553237915039062 L 60.3598518371582 11.553314208984375 L 60.6905403137207 11.866785049438477 L 60.84224319458008 12.010577201843262 L 60.84226608276367 12.010611534118652 L 60.95948028564453 12.183467864990234 L 61.014888763427734 12.288000106811523 L 61.383522033691406 12.983480453491211 L 61.439998626708984 13.125085830688477 L 61.45903778076172 13.172821998596191 L 61.4609260559082 13.177557945251465 L 61.49482727050781 13.383782386779785 L 61.55661392211914 13.932466506958008 L 61.56528854370117 14 L 61.56528854370117 16 L 61.56528854370117 16.384000778198242 L 61.56528854370117 24.576000213623047 L 61.56528854370117 32.768001556396484 L 61.56528854370117 65.53600311279297 L 61.56528854370117 73.72799682617188 L 61.56528854370117 81.91999816894531 L 61.56528854370117 84.5 L 61.56528854370117 86 L 61.56341552734375 86.01599884033203 L 61.541648864746094 86.20186614990234 L 61.439998626708984 86.77218627929688 L 61.4107780456543 86.93614196777344 L 61.355125427246094 87.13756561279297 L 61.14131164550781 87.54008483886719 L 61.04328155517578 87.72483825683594 L 61.0429801940918 87.7251968383789 L 60.75527572631836 88.06400299072266 L 60.748390197753906 88.07211303710938 L 60.61307144165039 88.23115539550781 L 60.446678161621094 88.35771942138672 L 60.08434295654297 88.63323974609375 L 59.8947868347168 88.72080993652344 L 59.391998291015625 88.8580551147461 L 58.89862823486328 88.99272918701172 L 58.5 89.06529235839844 L 57.34400177001953 89.06529235839844 L 55.29600143432617 89.06529235839844 L 53.24800109863281 89.06529235839844 L 49.152000427246094 89.06529235839844 L 32.768001556396484 89.06529235839844 L 16.384000778198242 89.06529235839844 L 0 89.06529235839844 L -16.384000778198242 89.06529235839844 L -24.576000213623047 89.06529235839844 L -32.768001556396484 89.06529235839844 L -40.959999084472656 89.06529235839844 L -45.055999755859375 89.06529235839844 L -49.152000427246094 89.06529235839844 L -53.24800109863281 89.06529235839844 L -55.29600143432617 89.06529235839844 L -57.34400177001953 89.06529235839844 L -58.5 89.06529235839844 L -58.89862823486328 88.99272918701172 L -59.391998291015625 88.8580551147461 L -59.8947868347168 88.72080993652344 L -60.08434295654297 88.63323974609375 L -60.446678161621094 88.35771942138672 L -60.61307144165039 88.23115539550781 L -60.748390197753906 88.07211303710938 L -60.75527572631836 88.06400299072266 L -61.0429801940918 87.7251968383789 L -61.04328155517578 87.72483825683594 L -61.14131164550781 87.54008483886719 L -61.355125427246094 87.13756561279297 L -61.4107780456543 86.93614196777344 M 74.57233428955078 32.75 L 74.57233428955078 28.672000885009766 L 74.57233428955078 24.576000213623047 L 74.57233428955078 20.479999542236328 L 74.57233428955078 16.384000778198242 L 74.57233428955078 12.75 L 77.82066345214844 12.75 L 77.82066345214844 16.384000778198242 L 77.82066345214844 20.479999542236328 L 77.82066345214844 24.576000213623047 L 77.82066345214844 28.672000885009766 L 77.82066345214844 32.75 L 76.5 32.75 L 74.57233428955078 32.75 M -32.768001556396484 47 L -2.5 47 L -2.5 32.768001556396484 L -2.5 24.576000213623047 L -2.5 16.996999740600586 L -8.192000389099121 16.996999740600586 L -16.384000778198242 16.996999740600586 L -16.39744758605957 16.996999740600586 L -18.245922088623047 16.996999740600586 L -19.604991912841797 16.996999740600586 L -20.78769302368164 16.996999740600586 L -24.576000213623047 16.996999740600586 L -25.33851432800293 16.996999740600586 L -32.768001556396484 16.996999740600586 L -33.00299835205078 16.996999740600586 L -33.00299835205078 32.768001556396484 L -33.00299835205078 47 L -32.768001556396484 47 M 91.07728576660156 62.75 L 91.07728576660156 57.34400177001953 L 91.07728576660156 53.24800109863281 L 91.07728576660156 49.152000427246094 L 91.07728576660156 42.75 L 94.42271423339844 42.75 L 94.42271423339844 49.152000427246094 L 94.42271423339844 53.24800109863281 L 94.42271423339844 57.34400177001953 L 94.42271423339844 62.75 L 91.07728576660156 62.75 M 81.42271423339844 42.75 L 81.42271423339844 49.152000427246094 L 81.42271423339844 53.24800109863281 L 81.42271423339844 57.34400177001953 L 81.42271423339844 62.75 L 78.07728576660156 62.75 L 78.07728576660156 57.34400177001953 L 78.07728576660156 53.24800109863281 L 78.07728576660156 49.152000427246094 L 78.07728576660156 42.75 L 81.42271423339844 42.75 M 90.42271423339844 2.75 L 90.42271423339844 8.192000389099121 L 90.42271423339844 12.288000106811523 L 90.42271423339844 16.384000778198242 L 90.42271423339844 22.75 L 89.5 22.75 L 87.07728576660156 22.75 L 87.07728576660156 16.384000778198242 L 87.07728576660156 12.288000106811523 L 87.07728576660156 8.192000389099121 L 87.07728576660156 2.75 L 90.42271423339844 2.75 M 56.39384841918945 -18.432132720947266 L 56.393436431884766 -18.43199920654297 L 55.71738815307617 -18.211999893188477 L 55.71638870239258 -18.211366653442383 L 55.0823860168457 -17.80900001525879 L 55.05400466918945 -17.778799057006836 L 54.568328857421875 -17.26099967956543 L 54.20532989501953 -16.601999282836914 L 54.14933395385742 -16.384000778198242 L 54.01832962036133 -15.87399959564209 L 54.01832962036133 -15.121999740600586 L 54.20532989501953 -14.392999649047852 L 54.23672866821289 -14.336000442504883 L 54.568328857421875 -13.734000205993652 L 55.05400466918945 -13.216200828552246 L 55.0823860168457 -13.185999870300293 L 55.71738815307617 -12.782999992370605 L 56.39384841918945 -12.563811302185059 L 56.43333053588867 -12.550999641418457 L 56.43339920043945 -12.550995826721191 L 57.18333053588867 -12.503000259399414 L 57.34400177001953 -12.533655166625977 L 57.922332763671875 -12.644000053405762 L 58.602333068847656 -12.96399974822998 L 59.18233108520508 -13.444000244140625 L 59.391998291015625 -13.73241138458252 L 59.624332427978516 -14.052000045776367 L 59.63969421386719 -14.090815544128418 L 59.736366271972656 -14.336000442504883 L 59.900390625 -14.751999855041504 L 59.90561294555664 -14.793444633483887 L 59.99533462524414 -15.498000144958496 L 59.99485778808594 -15.501728057861328 L 59.90561294555664 -16.20255470275879 L 59.900390625 -16.243999481201172 L 59.900306701660156 -16.24420738220215 L 59.84510803222656 -16.384000778198242 L 59.63969421386719 -16.904239654541016 L 59.624332427978516 -16.94300079345703 L 59.18233108520508 -17.551000595092773 L 58.602333068847656 -18.0310001373291 L 57.922332763671875 -18.35099983215332 L 57.34400177001953 -18.461345672607422 L 57.18333053588867 -18.492000579833984 L 56.43333053588867 -18.44499969482422 L 56.39384841918945 -18.432132720947266 M -2.5 81.91999816894531 L -2.5 65.53600311279297 L -2.5 52 L -32.768001556396484 52 L -33.00299835205078 52 L -33.00299835205078 65.53600311279297 L -33.00299835205078 81.91999816894531 L -33.00299835205078 83.00199890136719 L -32.768001556396484 83.00199890136719 L -24.576000213623047 83.00199890136719 L -16.384000778198242 83.00199890136719 L -2.5 83.00199890136719 L -2.5 81.91999816894531 M 2.5 65.53600311279297 L 2.5 81.91999816894531 L 2.5 83.00199890136719 L 16.384000778198242 83.00199890136719 L 17.429676055908203 83.00199890136719 L 32.768001556396484 83.00199890136719 L 33.00299835205078 83.00199890136719 L 33.00299835205078 81.91999816894531 L 33.00299835205078 65.53600311279297 L 33.00299835205078 52 L 32.768001556396484 52 L 2.5 52 L 2.5 65.53600311279297 M 2.5 24.576000213623047 L 2.5 32.768001556396484 L 2.5 47 L 32.768001556396484 47 L 33.00299835205078 47 L 33.00299835205078 32.768001556396484 L 33.00299835205078 16.996999740600586 L 32.768001556396484 16.996999740600586 L 24.576000213623047 16.996999740600586 L 22.982633590698242 16.996999740600586 L 16.384000778198242 16.996999740600586 L 15.395008087158203 16.996999740600586 L 14.21230697631836 16.996999740600586 L 13.078961372375488 16.996999740600586 L 8.192000389099121 16.996999740600586 L 2.5 16.996999740600586 L 2.5 24.576000213623047 M 59.90561294555664 -85.2074966430664 L 59.900390625 -85.2490005493164 L 59.900306701660156 -85.24920654296875 L 59.63969421386719 -85.90924072265625 L 59.624332427978516 -85.947998046875 L 59.57489776611328 -86.01599884033203 L 59.391998291015625 -86.26758575439453 L 59.18233108520508 -86.55599975585938 L 58.602333068847656 -87.03600311279297 L 57.922332763671875 -87.35600280761719 L 57.34400177001953 -87.46634674072266 L 57.18333053588867 -87.49700164794922 L 56.43333053588867 -87.4489974975586 L 56.39384841918945 -87.43618774414062 L 55.71738815307617 -87.21700286865234 L 55.71639633178711 -87.21636962890625 L 55.29600143432617 -86.94956970214844 L 55.0823860168457 -86.81400299072266 L 55.05400466918945 -86.78379821777344 L 54.568328857421875 -86.26599884033203 L 54.43062210083008 -86.01599884033203 L 54.20532989501953 -85.60700225830078 L 54.01832962036133 -84.87799835205078 L 54.01832962036133 -84.1259994506836 L 54.20532989501953 -83.39800262451172 L 54.568328857421875 -82.73899841308594 L 55.05400466918945 -82.22119903564453 L 55.0823860168457 -82.19100189208984 L 55.509395599365234 -81.91999816894531 L 55.71738815307617 -81.78800201416016 L 56.39384841918945 -81.56786346435547 L 56.43333053588867 -81.55500030517578 L 56.43339920043945 -81.55499267578125 L 57.18333053588867 -81.50800323486328 L 57.34400177001953 -81.53865814208984 L 57.922332763671875 -81.64900207519531 L 58.498207092285156 -81.91999816894531 L 58.602333068847656 -81.96900177001953 L 59.18233108520508 -82.4489974975586 L 59.624332427978516 -83.05699920654297 L 59.63969421386719 -83.09575653076172 L 59.900390625 -83.75599670410156 L 59.90561294555664 -83.79744720458984 L 59.927330017089844 -83.96800231933594 L 59.99533462524414 -84.50199890136719 L 59.90561294555664 -85.2074966430664 M -41.582000732421875 64.16899871826172 L -42.558998107910156 64.66600036621094 L -43.33399963378906 65.44100189208984 L -43.382328033447266 65.53600311279297 L -43.83100128173828 66.41799926757812 L -44.00299835205078 67.5 L -43.83100128173828 68.58200073242188 L -43.33399963378906 69.55899810791016 L -42.558998107910156 70.33399963378906 L -41.582000732421875 70.83100128173828 L -40.5 71.00299835205078 L -39.417999267578125 70.83100128173828 L -38.441001892089844 70.33399963378906 L -37.66600036621094 69.55899810791016 L -37.16899871826172 68.58200073242188 L -36.99800109863281 67.5 L -37.16899871826172 66.41799926757812 L -37.617671966552734 65.53600311279297 L -37.66600036621094 65.44100189208984 L -38.441001892089844 64.66600036621094 L -39.417999267578125 64.16899871826172 L -40.5 63.99800109863281 L -41.582000732421875 64.16899871826172 M 42.83100128173828 31.417999267578125 L 42.33399963378906 30.44099998474121 L 41.558998107910156 29.666000366210938 L 40.582000732421875 29.16900062561035 L 39.5 28.99799919128418 L 38.417999267578125 29.16900062561035 L 37.441001892089844 29.666000366210938 L 36.66600036621094 30.44099998474121 L 36.16899871826172 31.417999267578125 L 35.99800109863281 32.5 L 36.04035568237305 32.768001556396484 L 36.16899871826172 33.582000732421875 L 36.66600036621094 34.558998107910156 L 37.441001892089844 35.33399963378906 L 38.417999267578125 35.83100128173828 L 39.5 36.00299835205078 L 40.582000732421875 35.83100128173828 L 41.558998107910156 35.33399963378906 L 42.33399963378906 34.558998107910156 L 42.83100128173828 33.582000732421875 L 42.96039581298828 32.768001556396484 L 43.00299835205078 32.5 L 42.83100128173828 31.417999267578125 M -39.417999267578125 35.83100128173828 L -38.441001892089844 35.33399963378906 L -37.66600036621094 34.558998107910156 L -37.16899871826172 33.582000732421875 L -37.04035568237305 32.768001556396484 L -36.99800109863281 32.5 L -37.16899871826172 31.417999267578125 L -37.66600036621094 30.44099998474121 L -38.441001892089844 29.666000366210938 L -39.417999267578125 29.16900062561035 L -40.5 28.99799919128418 L -41.582000732421875 29.16900062561035 L -42.558998107910156 29.666000366210938 L -43.33399963378906 30.44099998474121 L -43.83100128173828 31.417999267578125 L -44.00299835205078 32.5 L -43.96039581298828 32.768001556396484 L -43.83100128173828 33.582000732421875 L -43.33399963378906 34.558998107910156 L -42.558998107910156 35.33399963378906 L -41.582000732421875 35.83100128173828 L -40.5 36.00299835205078 L -39.417999267578125 35.83100128173828 M -56.817718505859375 -87.49700164794922 L -57.34400177001953 -87.46331787109375 L -57.56772232055664 -87.4489974975586 L -58.283721923828125 -87.21700286865234 L -58.889225006103516 -86.83271789550781 L -58.91867446899414 -86.81400299072266 L -58.94259262084961 -86.7885513305664 L -59.391998291015625 -86.30941772460938 L -59.43272018432617 -86.26599884033203 L -59.570430755615234 -86.01599884033203 L -59.79572296142578 -85.60700225830078 L -59.982723236083984 -84.87799835205078 L -59.982723236083984 -84.1259994506836 L -59.79572296142578 -83.39800262451172 L -59.43272018432617 -82.73899841308594 L -58.94259262084961 -82.2164535522461 L -58.91867446899414 -82.19100189208984 L -58.889225006103516 -82.17227935791016 L -58.4917106628418 -81.91999816894531 L -58.283721923828125 -81.78800201416016 L -57.56772232055664 -81.55500030517578 L -57.34400177001953 -81.54097747802734 L -56.817718505859375 -81.50800323486328 L -56.07872009277344 -81.64900207519531 L -55.502845764160156 -81.91999816894531 L -55.398719787597656 -81.96900177001953 L -54.81871795654297 -82.4489974975586 L -54.378814697265625 -83.05411529541016 L -54.3767204284668 -83.05699920654297 L -54.1136589050293 -83.72322845458984 L -54.10067367553711 -83.75599670410156 L -54.09626388549805 -83.79097747802734 L -54.00571823120117 -84.50199890136719 L -54.00619888305664 -84.50576782226562 L -54.09626388549805 -85.21397399902344 L -54.10067367553711 -85.2490005493164 L -54.10074234008789 -85.24917602539062 L -54.1136589050293 -85.28177642822266 L -54.3767204284668 -85.947998046875 L -54.378814697265625 -85.95088195800781 L -54.426151275634766 -86.01599884033203 L -54.81871795654297 -86.55599975585938 L -55.29600143432617 -86.95098876953125 L -55.398719787597656 -87.03600311279297 L -56.07872009277344 -87.35600280761719 L -56.817718505859375 -87.49700164794922 M 38.417999267578125 64.16899871826172 L 37.441001892089844 64.66600036621094 L 36.66600036621094 65.44100189208984 L 36.617671966552734 65.53600311279297 L 36.16899871826172 66.41799926757812 L 35.99800109863281 67.5 L 36.16899871826172 68.58200073242188 L 36.66600036621094 69.55899810791016 L 37.441001892089844 70.33399963378906 L 38.417999267578125 70.83100128173828 L 39.5 71.00299835205078 L 40.582000732421875 70.83100128173828 L 41.558998107910156 70.33399963378906 L 42.33399963378906 69.55899810791016 L 42.83100128173828 68.58200073242188 L 43.00299835205078 67.5 L 42.83100128173828 66.41799926757812 L 42.382328033447266 65.53600311279297 L 42.33399963378906 65.44100189208984 L 41.558998107910156 64.66600036621094 L 40.582000732421875 64.16899871826172 L 39.5 63.99800109863281 L 38.417999267578125 64.16899871826172 z" fill="none" stroke="rgb(255,0,0)" stroke-width="0.001mm" />
</svg>